<svg xmlns="http://www.w3.org/2000/svg" xmlns:xlink="http://www.w3.org/1999/xlink" width="1024" zoomAndPan="magnify" viewBox="0 0 768 767.999994" height="1024" preserveAspectRatio="xMidYMid meet" version="1.0"><defs><clipPath id="5c0df73b1a"><path d="M 76.800781 354 L 322 354 L 322 665.410156 L 76.800781 665.410156 Z M 76.800781 354 " clip-rule="nonzero"/></clipPath><clipPath id="cf094ff458"><path d="M 446 102.910156 L 691.050781 102.910156 L 691.050781 414 L 446 414 Z M 446 102.910156 " clip-rule="nonzero"/></clipPath></defs><rect x="-76.8" width="921.6" fill="#ffffff" y="-76.799999" height="921.599993" fill-opacity="1"/><rect x="-76.8" width="921.6" fill="#ffffff" y="-76.799999" height="921.599993" fill-opacity="1"/><g clip-path="url(#5c0df73b1a)"><path fill="#29abe2" d="M 321.109375 665.382812 L 321.109375 521.96875 L 181.332031 426.085938 L 76.800781 354.378906 L 76.800781 497.792969 Z M 321.109375 665.382812 " fill-opacity="1" fill-rule="nonzero"/></g><g clip-path="url(#cf094ff458)"><path fill="#29abe2" d="M 446.765625 102.992188 L 446.765625 246.40625 L 586.542969 342.289062 L 691.078125 413.996094 L 691.078125 270.582031 Z M 446.765625 102.992188 " fill-opacity="1" fill-rule="nonzero"/></g><path fill="#0071bc" d="M 292.894531 473.042969 L 433.996094 267.199219 L 474.96875 295.332031 L 333.871094 501.175781 Z M 292.894531 473.042969 " fill-opacity="1" fill-rule="nonzero"/><path fill="#0071bc" d="M 321.105469 186.789062 L 321.105469 330.183594 L 203.855469 410.640625 L 99.320312 338.925781 Z M 321.105469 186.789062 " fill-opacity="1" fill-rule="nonzero"/><path fill="#0071bc" d="M 668.554688 429.445312 L 446.769531 581.589844 L 446.769531 438.1875 L 564.027344 357.742188 Z M 668.554688 429.445312 " fill-opacity="1" fill-rule="nonzero"/></svg>