<svg version="1.1" id="Layer_1" xmlns="http://www.w3.org/2000/svg" xmlns:xlink="http://www.w3.org/1999/xlink" x="0px" y="0px"
	 width="100%" viewBox="0 0 1024 1024" enable-background="new 0 0 1024 1024" xml:space="preserve">
<path fill="#FFFFFF" opacity="1.000000" stroke="none" 
	d="
M674.000000,1025.000000 
	C449.333344,1025.000000 225.166672,1025.000000 1.000000,1025.000000 
	C1.000000,683.666687 1.000000,342.333344 1.000000,1.000000 
	C342.333344,1.000000 683.666687,1.000000 1025.000000,1.000000 
	C1025.000000,342.333344 1025.000000,683.666687 1025.000000,1025.000000 
	C908.166687,1025.000000 791.333313,1025.000000 674.000000,1025.000000 
M870.854858,517.643372 
	C887.668640,529.162659 904.482483,540.682007 921.866211,552.591736 
	C921.982788,550.622925 922.089722,549.659424 922.089844,548.695923 
	C922.098022,487.535950 922.068237,426.375916 922.180176,365.216156 
	C922.186035,362.010040 920.729065,360.521057 918.403442,358.926514 
	C814.983765,288.016388 711.594482,217.061966 608.196350,146.120483 
	C604.687256,143.712891 601.124512,141.383560 597.047302,138.656967 
	C596.934875,140.580887 596.813599,141.688278 596.813416,142.795700 
	C596.804260,203.789017 596.831604,264.782379 596.729248,325.775543 
	C596.723999,328.926605 598.055725,330.497742 600.427673,332.123413 
	C690.398621,393.787811 780.332153,455.506866 870.854858,517.643372 
M278.190216,593.311890 
	C220.297562,553.625488 162.404907,513.939148 103.747818,473.728729 
	C103.747818,476.431183 103.747818,478.060486 103.747818,479.689789 
	C103.747849,539.677063 103.790131,599.664490 103.652840,659.651428 
	C103.643684,663.650085 104.974197,665.924438 108.193497,668.129944 
	C213.552628,740.310730 318.849396,812.582520 424.158356,884.836487 
	C425.590271,885.818970 427.060272,886.746094 428.886597,887.944519 
	C428.979980,886.486267 429.059265,885.825928 429.059357,885.165527 
	C429.065735,823.678528 429.038055,762.191528 429.146393,700.704712 
	C429.152008,697.510193 427.729095,695.998779 425.379578,694.388550 
	C376.483734,660.877319 327.630707,627.303650 278.190216,593.311890 
M295.467072,532.958435 
	C338.696472,503.305206 381.920624,473.644348 425.169281,444.019257 
	C427.573090,442.372650 429.186340,440.859619 429.177948,437.388367 
	C429.030548,376.418091 429.073486,315.447388 429.053558,254.476776 
	C429.053192,253.289185 428.792206,252.101685 428.589355,250.374146 
	C329.974457,318.072235 231.953903,385.362274 133.624451,452.864410 
	C134.641724,453.684448 135.110367,454.117126 135.630966,454.474030 
	C180.375854,485.154388 225.139801,515.807007 269.831757,546.564270 
	C272.226837,548.212585 273.793243,547.970276 275.971710,546.406860 
	C282.189514,541.944519 288.555450,537.688477 295.467072,532.958435 
M752.816040,669.299438 
	C799.216064,637.453186 845.616089,605.606995 892.376343,573.513489 
	C845.566345,541.434143 799.316956,509.739075 753.093994,478.062073 
	C751.827271,478.886902 750.844055,479.498108 749.890198,480.152313 
	C700.638611,513.933960 651.431580,547.780884 602.063538,581.391541 
	C597.934753,584.202454 596.659790,587.093933 596.672913,591.902649 
	C596.834595,651.214233 596.778320,710.526428 596.778320,769.838501 
	C596.778320,771.744446 596.778381,773.650391 596.778381,776.422424 
	C649.162964,740.473572 700.701904,705.105042 752.816040,669.299438 
M487.888458,608.394592 
	C536.615173,537.282410 585.341919,466.170197 634.280579,394.748749 
	C615.953552,382.173462 597.918579,369.798553 579.645996,357.260620 
	C516.774536,448.990875 454.245087,540.222229 391.514191,631.747437 
	C409.967438,644.409241 427.994781,656.778870 446.164856,669.246399 
	C460.181061,648.787598 473.820190,628.879089 487.888458,608.394592 
z"/>
<path fill="#29ABE2" opacity="1.000000" stroke="none" 
	d="
M870.562744,517.431030 
	C780.332153,455.506866 690.398621,393.787811 600.427673,332.123413 
	C598.055725,330.497742 596.723999,328.926605 596.729248,325.775543 
	C596.831604,264.782379 596.804260,203.789017 596.813416,142.795700 
	C596.813599,141.688278 596.934875,140.580887 597.047302,138.656967 
	C601.124512,141.383560 604.687256,143.712891 608.196350,146.120483 
	C711.594482,217.061966 814.983765,288.016388 918.403442,358.926514 
	C920.729065,360.521057 922.186035,362.010040 922.180176,365.216156 
	C922.068237,426.375916 922.098022,487.535950 922.089844,548.695923 
	C922.089722,549.659424 921.982788,550.622925 921.866211,552.591736 
	C904.482483,540.682007 887.668640,529.162659 870.562744,517.431030 
z"/>
<path fill="#29ABE2" opacity="1.000000" stroke="none" 
	d="
M278.479736,593.527100 
	C327.630707,627.303650 376.483734,660.877319 425.379578,694.388550 
	C427.729095,695.998779 429.152008,697.510193 429.146393,700.704712 
	C429.038055,762.191528 429.065735,823.678528 429.059357,885.165527 
	C429.059265,885.825928 428.979980,886.486267 428.886597,887.944519 
	C427.060272,886.746094 425.590271,885.818970 424.158356,884.836487 
	C318.849396,812.582520 213.552628,740.310730 108.193497,668.129944 
	C104.974197,665.924438 103.643684,663.650085 103.652840,659.651428 
	C103.790131,599.664490 103.747849,539.677063 103.747818,479.689789 
	C103.747818,478.060486 103.747818,476.431183 103.747818,473.728729 
	C162.404907,513.939148 220.297562,553.625488 278.479736,593.527100 
z"/>
<path fill="#0071BC" opacity="1.000000" stroke="none" 
	d="
M295.165100,533.154907 
	C288.555450,537.688477 282.189514,541.944519 275.971710,546.406860 
	C273.793243,547.970276 272.226837,548.212585 269.831757,546.564270 
	C225.139801,515.807007 180.375854,485.154388 135.630966,454.474030 
	C135.110367,454.117126 134.641724,453.684448 133.624451,452.864410 
	C231.953903,385.362274 329.974457,318.072235 428.589355,250.374146 
	C428.792206,252.101685 429.053192,253.289185 429.053558,254.476776 
	C429.073486,315.447388 429.030548,376.418091 429.177948,437.388367 
	C429.186340,440.859619 427.573090,442.372650 425.169281,444.019257 
	C381.920624,473.644348 338.696472,503.305206 295.165100,533.154907 
z"/>
<path fill="#0071BC" opacity="1.000000" stroke="none" 
	d="
M752.528442,669.517944 
	C700.701904,705.105042 649.162964,740.473572 596.778381,776.422424 
	C596.778381,773.650391 596.778320,771.744446 596.778320,769.838501 
	C596.778320,710.526428 596.834595,651.214233 596.672913,591.902649 
	C596.659790,587.093933 597.934753,584.202454 602.063538,581.391541 
	C651.431580,547.780884 700.638611,513.933960 749.890198,480.152313 
	C750.844055,479.498108 751.827271,478.886902 753.093994,478.062073 
	C799.316956,509.739075 845.566345,541.434143 892.376343,573.513489 
	C845.616089,605.606995 799.216064,637.453186 752.528442,669.517944 
z"/>
<path fill="#0172BC" opacity="1.000000" stroke="none" 
	d="
M487.673889,608.682617 
	C473.820190,628.879089 460.181061,648.787598 446.164856,669.246399 
	C427.994781,656.778870 409.967438,644.409241 391.514191,631.747437 
	C454.245087,540.222229 516.774536,448.990875 579.645996,357.260620 
	C597.918579,369.798553 615.953552,382.173462 634.280579,394.748749 
	C585.341919,466.170197 536.615173,537.282410 487.673889,608.682617 
z"/>
</svg>